<svg width="22" height="24" viewBox="0 0 22 24" fill="none" xmlns="http://www.w3.org/2000/svg">
<path d="M13.1363 8.15114L8.66216 0.797114C8.37074 0.299989 7.8479 0 7.27364 0H1.62526C0.382452 0 -0.39752 1.3371 0.21103 2.41706C1.34211 4.41817 2.93849 6.11745 4.86515 7.37117C5.51655 7.87686 6.32224 8.15114 7.15364 8.15114H13.1363Z" fill="#0074BA"/>
<path d="M19.8987 0H14.2503C13.6761 0 13.1532 0.299989 12.8618 0.797114L8.3877 8.15114H14.3789C15.2103 8.15114 16.0074 7.87686 16.6674 7.37117C18.5959 6.11978 20.1901 4.4227 21.3215 2.41706C21.9215 1.3371 21.1415 0 19.8987 0Z" fill="#00A6ED"/>
<path d="M10.7294 24C15.4821 24 19.3348 20.0513 19.3348 15.1803C19.3348 10.3093 15.4821 6.3606 10.7294 6.3606C5.97674 6.3606 2.12402 10.3093 2.12402 15.1803C2.12402 20.0513 5.97674 24 10.7294 24Z" fill="#BEBEBE"/>
<path d="M10.7295 22.9372C8.70673 22.9372 6.80394 22.1315 5.38113 20.6658C3.94931 19.1999 3.15188 17.2294 3.16121 15.1803C3.16121 13.1061 3.94976 11.1605 5.38113 9.6948C6.07564 8.97706 6.90741 8.40633 7.82696 8.01655C8.74651 7.62677 9.73505 7.4259 10.7338 7.4259C11.7325 7.4259 12.7211 7.62677 13.6406 8.01655C14.5602 8.40633 15.392 8.97706 16.0865 9.6948C19.0349 12.7204 19.0349 17.6402 16.0865 20.6658C14.6465 22.1315 12.7437 22.9372 10.7295 22.9372ZM10.7209 8.47771C9.04957 8.47771 7.36964 9.12911 6.10111 10.4405C4.86696 11.7086 4.18052 13.4108 4.18975 15.1803C4.18975 16.9717 4.86687 18.6516 6.10111 19.9202C6.69954 20.5412 7.41714 21.0352 8.21095 21.3725C9.00476 21.7097 9.85846 21.8833 10.7209 21.8829C12.4695 21.8829 14.1065 21.1887 15.3408 19.9202C17.8864 17.306 17.8864 13.0547 15.3408 10.4405C14.743 9.81861 14.0255 9.32413 13.2315 8.98681C12.4376 8.64949 11.5836 8.47632 10.7209 8.47771Z" fill="#E6E6E6"/>
<path d="M12.3397 18.8137H8.93692C8.77298 18.8141 8.61237 18.7675 8.47412 18.6793C8.33588 18.5912 8.2258 18.4653 8.15695 18.3165C8.08599 18.169 8.05878 18.0042 8.07852 17.8417C8.09827 17.6792 8.16415 17.5257 8.26837 17.3994L11.0968 13.9281C11.3197 13.6539 11.2168 13.3624 11.1826 13.2767C11.1423 13.1772 11.0738 13.0917 10.9854 13.0307C10.8971 12.9698 10.7927 12.9361 10.6854 12.9339H10.6426C10.3683 12.9339 10.1197 13.0624 9.95688 13.2853C9.68261 13.671 9.14263 13.7653 8.74836 13.491C8.65537 13.4253 8.57627 13.3418 8.51559 13.2454C8.45491 13.1491 8.41384 13.0417 8.39473 12.9294C8.37562 12.8172 8.37885 12.7022 8.40423 12.5912C8.42962 12.4802 8.47665 12.3753 8.54265 12.2825C9.02263 11.6054 9.8026 11.2025 10.634 11.2025H10.7454C11.6197 11.2454 12.3825 11.7682 12.7425 12.5653C13.1111 13.3882 12.9911 14.3224 12.4254 15.0167L10.754 17.0737H12.3311C12.8111 17.0737 13.1968 17.4594 13.1968 17.9394C13.1968 18.4194 12.8196 18.8137 12.3397 18.8137Z" fill="#636363"/>
</svg>
