<svg width="22" height="25" viewBox="0 0 22 25" fill="none" xmlns="http://www.w3.org/2000/svg">
<path d="M13.4243 8.32986L8.85209 0.814592C8.55428 0.306567 8.01998 0 7.43312 0H1.6609C0.390838 0 -0.406236 1.36641 0.215657 2.47005C1.37153 4.51505 3.00292 6.25159 4.97182 7.53279C5.63751 8.04957 6.46086 8.32986 7.31049 8.32986H13.4243Z" fill="#0074BA"/>
<path d="M20.3347 0H14.5625C13.9756 0 13.4413 0.306567 13.1435 0.814592L8.57129 8.32986H14.6939C15.5435 8.32986 16.3581 8.04957 17.0325 7.53279C19.0033 6.25397 20.6325 4.51967 21.7887 2.47005C22.4018 1.36641 21.6048 0 20.3347 0Z" fill="#00A6ED"/>
<path d="M10.9914 24.5253C15.8483 24.5253 19.7854 20.49 19.7854 15.5122C19.7854 10.5344 15.8483 6.49915 10.9914 6.49915C6.13446 6.49915 2.19727 10.5344 2.19727 15.5122C2.19727 20.49 6.13446 24.5253 10.9914 24.5253Z" fill="#FFB02E"/>
<path d="M9.31445 12.2986C9.31445 12.0663 9.40674 11.8435 9.571 11.6793C9.73526 11.515 9.95805 11.4227 10.1904 11.4227H10.9997C11.232 11.4227 11.4548 11.515 11.6191 11.6793C11.7833 11.8435 11.8756 12.0663 11.8756 12.2986V18.3941C11.8756 18.6264 11.7833 18.8492 11.6191 19.0134C11.4548 19.1777 11.232 19.27 10.9997 19.27C10.7674 19.27 10.5446 19.1777 10.3803 19.0134C10.2161 18.8492 10.1238 18.6264 10.1238 18.3941V13.1719C9.90366 13.1551 9.69799 13.0559 9.54793 12.8939C9.39786 12.732 9.31448 12.5194 9.31445 12.2986Z" fill="#6D4534"/>
<path d="M11 23.4393C8.93282 23.4393 6.98831 22.6159 5.5343 21.1181C4.07109 19.6201 3.25617 17.6064 3.26571 15.5123C3.26571 13.3926 4.07154 11.4043 5.5343 9.90654C6.24404 9.17306 7.09404 8.58981 8.03375 8.19149C8.97346 7.79316 9.98369 7.58789 11.0043 7.58789C12.025 7.58789 13.0352 7.79316 13.9749 8.19149C14.9146 8.58981 15.7646 9.17306 16.4744 9.90654C19.4875 12.9985 19.4875 18.0262 16.4744 21.1181C15.0028 22.6159 13.0583 23.4393 11 23.4393ZM10.9912 8.66276C9.28318 8.66276 7.5664 9.32844 6.27006 10.6686C5.00886 11.9645 4.30736 13.7041 4.31679 15.5123C4.31679 17.343 5.00876 19.0598 6.27006 20.3561C6.88162 20.9908 7.61495 21.4956 8.42617 21.8402C9.23738 22.1849 10.1098 22.3623 10.9912 22.3619C12.778 22.3619 14.451 21.6524 15.7123 20.3561C18.3138 17.6846 18.3138 13.3401 15.7123 10.6686C15.1014 10.0331 14.3682 9.52774 13.5568 9.18302C12.7455 8.83831 11.8727 8.66134 10.9912 8.66276Z" fill="#FCD53F"/>
</svg>
