<svg width="22" height="24" viewBox="0 0 22 24" fill="none" xmlns="http://www.w3.org/2000/svg">
<path d="M13.1368 8.15143L8.66247 0.797143C8.37104 0.3 7.84818 0 7.2739 0H1.62532C0.382466 0 -0.397534 1.33714 0.211037 2.41714C1.34215 4.41833 2.93859 6.11767 4.86532 7.37143C5.51675 7.87714 6.32247 8.15143 7.15389 8.15143H13.1368Z" fill="#0074BA"/>
<path d="M19.8991 0H14.2506C13.6763 0 13.1534 0.3 12.862 0.797143L8.3877 8.15143H14.3791C15.2106 8.15143 16.0077 7.87714 16.6677 7.37143C18.5963 6.12 20.1906 4.42286 21.322 2.41714C21.922 1.33714 21.142 0 19.8991 0Z" fill="#00A6ED"/>
<path d="M10.7561 23.9999C15.509 23.9999 19.3618 20.051 19.3618 15.1799C19.3618 10.3087 15.509 6.35986 10.7561 6.35986C6.00325 6.35986 2.15039 10.3087 2.15039 15.1799C2.15039 20.051 6.00325 23.9999 10.7561 23.9999Z" fill="#D3883E"/>
<path d="M10.764 22.9371C8.74111 22.9371 6.83825 22.1314 5.41539 20.6657C3.98352 19.1997 3.18606 17.2292 3.19539 15.18C3.19539 13.1057 3.98397 11.16 5.41539 9.69428C6.10993 8.97651 6.94172 8.40575 7.8613 8.01596C8.78088 7.62616 9.76947 7.42529 10.7682 7.42529C11.767 7.42529 12.7556 7.62616 13.6752 8.01596C14.5948 8.40575 15.4266 8.97651 16.1211 9.69428C19.0697 12.72 19.0697 17.64 16.1211 20.6657C14.6811 22.1314 12.7783 22.9371 10.764 22.9371ZM10.7554 8.47713C9.08396 8.47713 7.40397 9.12856 6.13539 10.44C4.9012 11.7081 4.21473 13.4104 4.22396 15.18C4.22396 16.9714 4.90111 18.6514 6.13539 19.92C6.73385 20.5411 7.45148 21.0351 8.24531 21.3724C9.03915 21.7096 9.89288 21.8833 10.7554 21.8828C12.504 21.8828 14.1411 21.1886 15.3754 19.92C17.9211 17.3057 17.9211 13.0543 15.3754 10.44C14.7775 9.81809 14.06 9.32359 13.2661 8.98626C12.4721 8.64893 11.6181 8.47574 10.7554 8.47713Z" fill="#F3AD61"/>
<path d="M11.9655 13.95L12.8638 12.3985C12.9371 12.2711 12.9756 12.1268 12.9756 11.9798C12.9756 11.8329 12.9371 11.6885 12.8638 11.5611C12.7909 11.4337 12.6855 11.3279 12.5585 11.2545C12.4314 11.181 12.2872 11.1425 12.1404 11.1428H9.4901C9.27275 11.1498 9.06663 11.241 8.91534 11.3972C8.76405 11.5534 8.67946 11.7624 8.67946 11.9798C8.67946 12.1973 8.76405 12.4062 8.91534 12.5624C9.06663 12.7186 9.27275 12.8099 9.4901 12.8168H10.6927L10.0481 13.9405C9.93021 14.0861 9.8655 14.2675 9.86468 14.4548C9.86468 14.9177 10.2401 15.2923 10.7021 15.2923C11.225 15.2923 11.6518 15.7191 11.6518 16.242C11.6518 16.7648 11.225 17.1925 10.7021 17.1925C10.301 17.1925 9.94353 16.9397 9.81239 16.5643C9.73775 16.3568 9.58417 16.1873 9.38509 16.0925C9.18602 15.9978 8.95758 15.9856 8.74953 16.0585C8.6461 16.0946 8.55085 16.1509 8.46932 16.2241C8.38779 16.2972 8.32158 16.3859 8.27454 16.4848C8.22751 16.5837 8.20057 16.691 8.1953 16.8004C8.19002 16.9099 8.20651 17.0192 8.24382 17.1223C8.42605 17.6287 8.75969 18.0669 9.19946 18.3772C9.63924 18.6876 10.1638 18.8551 10.7021 18.8571C11.3952 18.8564 12.0598 18.5808 12.5499 18.0907C13.0401 17.6005 13.3157 16.936 13.3164 16.2428C13.3153 15.7751 13.1896 15.3161 12.9522 14.913C12.7147 14.51 12.3742 14.1776 11.9655 13.95Z" fill="#402A32"/>
</svg>
