<svg width="470" height="584" viewBox="0 0 470 584" fill="none" xmlns="http://www.w3.org/2000/svg">
<g clip-path="url(#clip0_3192_10368)">
<rect x="1" y="1" width="468" height="580" rx="49" fill="#141519"/>
<rect x="1" y="1" width="468" height="580" rx="49" fill="url(#paint0_linear_3192_10368)"/>
<rect x="1" y="1" width="468" height="580" rx="49" stroke="url(#paint1_linear_3192_10368)" stroke-width="2"/>
<g filter="url(#filter0_f_3192_10368)">
<path d="M420.418 35.9972C448.031 35.8639 470.502 58.1415 470.606 85.7555L472.45 573.499L2.03336 575.77L0.189702 88.0264C0.0853214 60.4124 22.3862 37.9187 50.0001 37.7854L420.418 35.9972Z" fill="#0C0E12"/>
<path d="M470.106 85.7579L471.948 573.001L2.53137 575.268L0.689604 88.024C0.586276 60.6861 22.6642 38.4174 50.0019 38.2854L420.419 36.4972C447.757 36.3653 470.003 58.42 470.106 85.7579Z" stroke="url(#paint2_linear_3192_10368)"/>
</g>
<g filter="url(#filter1_f_3192_10368)">
<rect x="433.015" width="37" height="315.213" transform="rotate(33.0733 433.015 0)" fill="url(#paint3_linear_3192_10368)" fill-opacity="0.5"/>
</g>
</g>
<defs>
<filter id="filter0_f_3192_10368" x="-99.8105" y="-64.0029" width="672.26" height="739.772" filterUnits="userSpaceOnUse" color-interpolation-filters="sRGB">
<feFlood flood-opacity="0" result="BackgroundImageFix"/>
<feBlend mode="normal" in="SourceGraphic" in2="BackgroundImageFix" result="shape"/>
<feGaussianBlur stdDeviation="50" result="effect1_foregroundBlur_3192_10368"/>
</filter>
<filter id="filter1_f_3192_10368" x="211" y="-50" width="303.02" height="384.331" filterUnits="userSpaceOnUse" color-interpolation-filters="sRGB">
<feFlood flood-opacity="0" result="BackgroundImageFix"/>
<feBlend mode="normal" in="SourceGraphic" in2="BackgroundImageFix" result="shape"/>
<feGaussianBlur stdDeviation="25" result="effect1_foregroundBlur_3192_10368"/>
</filter>
<linearGradient id="paint0_linear_3192_10368" x1="16.5" y1="19.4" x2="358.468" y2="252.23" gradientUnits="userSpaceOnUse">
<stop stop-color="white"/>
<stop offset="0.20622" stop-color="#00AAFF"/>
<stop offset="1" stop-opacity="0"/>
</linearGradient>
<linearGradient id="paint1_linear_3192_10368" x1="460" y1="9.21719" x2="1.74847e-07" y2="9.2172" gradientUnits="userSpaceOnUse">
<stop stop-color="#626262"/>
<stop offset="1" stop-color="#00AAFF"/>
</linearGradient>
<linearGradient id="paint2_linear_3192_10368" x1="464.956" y1="562.093" x2="462.416" y2="35.7945" gradientUnits="userSpaceOnUse">
<stop stop-color="#626262"/>
<stop offset="1" stop-color="#FFAE00"/>
</linearGradient>
<linearGradient id="paint3_linear_3192_10368" x1="438.333" y1="7.13967" x2="450.966" y2="315.235" gradientUnits="userSpaceOnUse">
<stop stop-color="#D9D9D9"/>
<stop offset="1" stop-color="#141519" stop-opacity="0.2"/>
</linearGradient>
<clipPath id="clip0_3192_10368">
<rect width="470" height="584" rx="50" fill="white"/>
</clipPath>
</defs>
</svg>
