<svg width="249" height="179" viewBox="0 0 249 179" fill="none" xmlns="http://www.w3.org/2000/svg">
<path opacity="0.1" d="M243.422 13.3574H158.189C155.145 13.3574 152.656 15.8471 152.656 18.8904V23.7316V120.552C152.656 123.596 155.145 126.085 158.189 126.085H243.422C246.465 126.085 248.955 123.596 248.955 120.552V23.731V18.8898C248.954 15.8471 246.465 13.3574 243.422 13.3574Z" fill="#0C0C0C"/>
<path d="M242.038 127.467C242.038 130.51 239.549 132.999 236.505 132.999H151.273C148.229 132.999 145.74 130.51 145.74 127.467V25.8054C145.74 22.7627 148.229 20.2725 151.273 20.2725H236.506C239.549 20.2725 242.039 22.7627 242.039 25.8054V127.467H242.038Z" fill="white"/>
<path d="M145.74 25.8054V30.6466H242.038V25.8054C242.038 22.7627 239.549 20.2725 236.505 20.2725H151.273C148.229 20.2725 145.74 22.7627 145.74 25.8054Z" fill="#008E7E"/>
<path d="M154.27 25.4601C154.27 26.669 153.289 27.65 152.079 27.65C150.87 27.65 149.889 26.669 149.889 25.4601C149.889 24.2505 150.87 23.2695 152.079 23.2695C153.289 23.2702 154.27 24.2505 154.27 25.4601Z" fill="white"/>
<path d="M161.186 25.4601C161.186 26.669 160.205 27.65 158.996 27.65C157.786 27.65 156.806 26.669 156.806 25.4601C156.806 24.2505 157.786 23.2695 158.996 23.2695C160.206 23.2702 161.186 24.2505 161.186 25.4601Z" fill="white"/>
<path d="M168.101 25.4601C168.101 26.669 167.121 27.65 165.911 27.65C164.702 27.65 163.721 26.669 163.721 25.4601C163.721 24.2505 164.702 23.2695 165.911 23.2695C167.12 23.2702 168.101 24.2505 168.101 25.4601Z" fill="white"/>
<path d="M238.381 38.7432C238.381 40.9078 236.626 42.6623 234.461 42.6623H153.317C151.152 42.6623 149.398 40.9078 149.398 38.7432C149.398 36.5794 151.152 34.8242 153.317 34.8242H234.461C236.626 34.8242 238.381 36.5794 238.381 38.7432Z" fill="#EFEEED"/>
<path d="M185.591 37.4463H153.778V39.9818H185.591V37.4463Z" fill="#DBDAD9"/>
<path d="M236.496 38.7145C236.496 40.1879 235.301 41.3832 233.827 41.3832C232.353 41.3832 231.159 40.1879 231.159 38.7145C231.159 37.2412 232.353 36.0459 233.827 36.0459C235.301 36.0459 236.496 37.2406 236.496 38.7145Z" fill="#DBDAD9"/>
<path d="M238.381 47.2441H149.744V76.6356H238.381V47.2441Z" fill="#DBDAD9"/>
<path d="M205.128 62.6317C205.128 68.7425 200.174 73.697 194.062 73.697C187.951 73.697 182.998 68.7431 182.998 62.6317C182.998 56.5203 187.951 51.5664 194.062 51.5664C200.174 51.5664 205.128 56.5203 205.128 62.6317Z" fill="#EFEEED"/>
<path d="M191.507 57.3174V68.4087L198.684 62.8627L191.507 57.3174Z" fill="#DBDAD9"/>
<path d="M238.381 79.749H149.889V82.2845H238.381V79.749Z" fill="#EFEEED"/>
<path d="M238.381 85.2812H149.889V87.8167H238.381V85.2812Z" fill="#EFEEED"/>
<path d="M238.381 90.8135H149.889V93.349H238.381V90.8135Z" fill="#EFEEED"/>
<path d="M216.227 100.034H149.744V107.709H216.227V100.034Z" fill="#EFEEED"/>
<path d="M238.381 100.034H220.376V107.709H238.381V100.034Z" fill="#EFEEED"/>
<path d="M216.227 110.408H149.744V118.083H216.227V110.408Z" fill="#EFEEED"/>
<path d="M238.381 110.408H220.376V118.083H238.381V110.408Z" fill="#EFEEED"/>
<path d="M216.227 120.781H149.744V128.456H216.227V120.781Z" fill="#EFEEED"/>
<path d="M238.381 120.781H220.376V128.456H238.381V120.781Z" fill="#EFEEED"/>
<path opacity="0.1" d="M97.6825 13.3574H12.4492C9.40653 13.3574 6.91626 15.8471 6.91626 18.8904V23.7316V120.552C6.91626 123.596 9.40653 126.085 12.4492 126.085H97.6825C100.725 126.085 103.215 123.596 103.215 120.552V23.731V18.8898C103.215 15.8471 100.725 13.3574 97.6825 13.3574Z" fill="#0C0C0C"/>
<path d="M96.2992 127.467C96.2992 130.51 93.8096 132.999 90.7669 132.999H5.53297C2.48965 132.999 0 130.51 0 127.467V25.8054C0 22.7627 2.48965 20.2725 5.53297 20.2725H90.7669C93.8096 20.2725 96.2992 22.7627 96.2992 25.8054V127.467Z" fill="white"/>
<path d="M0.000488281 25.8054V30.6466H96.2991V25.8054C96.2991 22.7627 93.8094 20.2725 90.7667 20.2725H5.53284C2.49014 20.2725 0.000488281 22.7627 0.000488281 25.8054Z" fill="#FFC840"/>
<path d="M8.53081 25.4601C8.53081 26.669 7.55043 27.65 6.34029 27.65C5.13139 27.65 4.15039 26.669 4.15039 25.4601C4.15039 24.2505 5.13077 23.2695 6.34029 23.2695C7.54981 23.2702 8.53081 24.2505 8.53081 25.4601Z" fill="white"/>
<path d="M15.4458 25.4601C15.4458 26.669 14.4649 27.65 13.2553 27.65C12.0458 27.65 11.0654 26.669 11.0654 25.4601C11.0654 24.2505 12.0464 23.2695 13.2553 23.2695C14.4649 23.2702 15.4458 24.2505 15.4458 25.4601Z" fill="white"/>
<path d="M22.3614 25.4601C22.3614 26.669 21.381 27.65 20.1709 27.65C18.962 27.65 17.981 26.669 17.981 25.4601C17.981 24.2505 18.962 23.2695 20.1709 23.2695C21.381 23.2702 22.3614 24.2505 22.3614 25.4601Z" fill="white"/>
<path d="M92.6412 38.7432C92.6412 40.9078 90.8867 42.6623 88.7216 42.6623H7.57699C5.41248 42.6623 3.65796 40.9078 3.65796 38.7432C3.65796 36.5794 5.41248 34.8242 7.57699 34.8242H88.721C90.8867 34.8242 92.6412 36.5794 92.6412 38.7432Z" fill="#EFEEED"/>
<path d="M39.8505 37.4463H8.03809V39.9818H39.8505V37.4463Z" fill="#DBDAD9"/>
<path d="M90.7562 38.7145C90.7562 40.1879 89.5616 41.3832 88.0876 41.3832C86.6142 41.3832 85.4189 40.1879 85.4189 38.7145C85.4189 37.2412 86.6136 36.0459 88.0876 36.0459C89.5616 36.0459 90.7562 37.2406 90.7562 38.7145Z" fill="#DBDAD9"/>
<path d="M48.0033 47.2441H4.00342V72.8324H48.0033V47.2441Z" fill="#DBDAD9"/>
<path d="M92.2951 47.8203H51.6494V50.3558H92.2951V47.8203Z" fill="#EFEEED"/>
<path d="M92.2951 53.3525H51.6494V55.888H92.2951V53.3525Z" fill="#EFEEED"/>
<path d="M92.2951 58.8857H51.6494V61.4212H92.2951V58.8857Z" fill="#EFEEED"/>
<path d="M92.2951 64.418H51.6494V66.9534H92.2951V64.418Z" fill="#EFEEED"/>
<path d="M92.2951 69.9512H51.6494V72.4867H92.2951V69.9512Z" fill="#EFEEED"/>
<path d="M92.2949 75.4834H4.00342V78.0189H92.2949V75.4834Z" fill="#EFEEED"/>
<path d="M92.2949 81.0156H4.00342V83.5511H92.2949V81.0156Z" fill="#EFEEED"/>
<path d="M92.2949 86.5479H4.00342V89.0833H92.2949V86.5479Z" fill="#EFEEED"/>
<path d="M92.2949 92.0811H4.00342V94.6165H92.2949V92.0811Z" fill="#EFEEED"/>
<path d="M58.2313 108.679H4.00342V111.214H58.2313V108.679Z" fill="#EFEEED"/>
<path d="M58.2313 114.211H4.00342V116.746H58.2313V114.211Z" fill="#EFEEED"/>
<path d="M58.2313 97.6133H4.00342V100.149H58.2313V97.6133Z" fill="#EFEEED"/>
<path d="M58.2313 103.146H4.00342V105.682H58.2313V103.146Z" fill="#EFEEED"/>
<path d="M58.2313 119.744H4.00342V122.28H58.2313V119.744Z" fill="#EFEEED"/>
<path d="M92.1496 97.3828H61.3442V122.971H92.1496V97.3828Z" fill="#DBDAD9"/>
<path opacity="0.1" d="M195.017 82.5146H67.7686C64.7252 82.5146 62.2356 85.0043 62.2356 88.0476V93.5793V166.195C62.2356 169.238 64.7252 171.728 67.7686 171.728H195.017C198.061 171.728 200.55 169.238 200.55 166.195V93.5793V88.0476C200.55 85.0043 198.061 82.5146 195.017 82.5146Z" fill="#0C0C0C"/>
<path d="M193.635 173.111C193.635 176.153 191.145 178.643 188.102 178.643H60.8527C57.81 178.643 55.3203 176.153 55.3203 173.111V94.9627C55.3203 91.9193 57.81 89.4297 60.8527 89.4297H188.102C191.145 89.4297 193.635 91.9193 193.635 94.9627V173.111Z" fill="white"/>
<path d="M188.101 89.4307H60.8524C57.8097 89.4307 55.3201 91.9203 55.3201 94.9636V100.495H193.634V94.9636C193.634 91.9203 191.145 89.4307 188.101 89.4307Z" fill="#F97432"/>
<path d="M65.0015 95.0776C65.0015 96.2871 64.0211 97.2675 62.811 97.2675C61.6015 97.2675 60.6211 96.2871 60.6211 95.0776C60.6211 93.8681 61.6015 92.8877 62.811 92.8877C64.0211 92.8877 65.0015 93.8681 65.0015 95.0776Z" fill="white"/>
<path d="M71.917 95.0776C71.917 96.2871 70.9367 97.2675 69.7265 97.2675C68.5176 97.2675 67.5366 96.2871 67.5366 95.0776C67.5366 93.8681 68.517 92.8877 69.7265 92.8877C70.936 92.8877 71.917 93.8681 71.917 95.0776Z" fill="white"/>
<path d="M78.8333 95.0776C78.8333 96.2871 77.8529 97.2675 76.6428 97.2675C75.4333 97.2675 74.4529 96.2871 74.4529 95.0776C74.4529 93.8681 75.4333 92.8877 76.6428 92.8877C77.8523 92.8877 78.8333 93.8681 78.8333 95.0776Z" fill="white"/>
<path d="M187.641 107.641C187.641 109.805 185.886 111.56 183.721 111.56H65.2318C63.0673 111.56 61.3127 109.805 61.3127 107.641C61.3127 105.476 63.0673 103.722 65.2318 103.722H183.721C185.886 103.722 187.641 105.477 187.641 107.641Z" fill="#EFEEED"/>
<path d="M125.169 106.344H65.6938V108.879H125.169V106.344Z" fill="#DBDAD9"/>
<path d="M185.755 107.612C185.755 109.085 184.561 110.281 183.087 110.281C181.613 110.281 180.418 109.085 180.418 107.612C180.418 106.139 181.613 104.943 183.087 104.943C184.561 104.943 185.755 106.138 185.755 107.612Z" fill="#DBDAD9"/>
<path d="M187.641 115.248H61.3127V137.379H187.641V115.248Z" fill="#DBDAD9"/>
<path d="M101.958 139.914H61.3125V154.207H101.958V139.914Z" fill="#EFEEED"/>
<path d="M101.958 156.514H61.3123V159.049H101.958V156.514Z" fill="#EFEEED"/>
<path d="M101.958 162.046H61.312V164.581H101.958V162.046Z" fill="#EFEEED"/>
<path d="M101.958 167.579H61.312V170.115H101.958V167.579Z" fill="#EFEEED"/>
<path d="M187.641 139.914H146.995V154.207H187.641V139.914Z" fill="#EFEEED"/>
<path d="M187.641 156.514H146.995V159.049H187.641V156.514Z" fill="#EFEEED"/>
<path d="M187.641 162.046H146.995V164.581H187.641V162.046Z" fill="#EFEEED"/>
<path d="M187.641 167.579H146.995V170.115H187.641V167.579Z" fill="#EFEEED"/>
<path d="M144.799 139.914H104.154V154.207H144.799V139.914Z" fill="#EFEEED"/>
<path d="M144.799 156.514H104.154V159.049H144.799V156.514Z" fill="#EFEEED"/>
<path d="M144.8 162.046H104.155V164.581H144.8V162.046Z" fill="#EFEEED"/>
<path d="M144.8 167.579H104.155V170.115H144.8V167.579Z" fill="#EFEEED"/>
<path d="M50.5303 142.746L33.1535 125.369C29.3782 121.594 29.3782 115.452 33.1535 111.677L34.0026 110.828C37.778 107.052 43.9203 107.052 47.6951 110.828L65.0718 128.204C68.8465 131.979 68.8465 138.121 65.0718 141.897L64.2227 142.746C60.4474 146.521 54.3056 146.521 50.5303 142.746ZM45.7386 112.784C43.0421 110.088 38.6549 110.088 35.9584 112.784L35.1093 113.633C32.4128 116.33 32.4128 120.717 35.1093 123.413L52.4861 140.791C55.1826 143.487 59.5698 143.487 62.2663 140.791L63.1154 139.942C65.8119 137.245 65.8119 132.858 63.1154 130.161L45.7386 112.784Z" fill="#FFC840"/>
<path d="M56.5943 161.395L39.2175 144.017C35.4428 140.242 35.4428 134.1 39.2175 130.325L40.0666 129.477C43.8413 125.702 49.9843 125.702 53.759 129.477L71.1358 146.854C74.9105 150.629 74.9105 156.77 71.1358 160.545L70.2873 161.394C66.5114 165.17 60.3696 165.17 56.5943 161.395ZM51.8026 131.433C49.1061 128.736 44.7189 128.736 42.0224 131.433L41.1739 132.281C38.4774 134.978 38.4774 139.365 41.1739 142.062L58.5507 159.439C61.2472 162.136 65.6344 162.136 68.3309 159.439L69.1794 158.59C71.8759 155.893 71.8765 151.506 69.1794 148.809L51.8026 131.433Z" fill="#F97432"/>
<path d="M40.6193 128.923L35.1098 123.413C32.4133 120.716 32.4133 116.329 35.1098 113.632L35.9589 112.783C38.6554 110.087 43.0426 110.087 45.7391 112.783L63.1159 130.161C65.6254 132.67 65.7994 136.644 63.638 139.356C63.477 139.56 61.6562 141.401 61.6562 141.401L63.6479 143.277L65.0723 141.897C65.2581 141.71 65.4352 141.518 65.6037 141.321C68.8384 137.52 68.6606 131.793 65.0723 128.204L47.6956 110.828C43.9202 107.052 37.7785 107.052 34.0031 110.828L33.154 111.677C29.3787 115.452 29.3787 121.594 33.154 125.369L38.6641 130.879L40.6193 128.923Z" fill="#FFC840"/>
<path d="M184.731 142.746L183.882 141.897C180.106 138.121 180.106 131.979 183.882 128.204L201.259 110.828C205.035 107.052 211.177 107.052 214.951 110.828L215.801 111.677C219.575 115.452 219.575 121.594 215.801 125.369L198.424 142.746C194.648 146.521 188.507 146.521 184.731 142.746ZM185.837 130.161C183.141 132.857 183.141 137.245 185.837 139.941L186.687 140.79C189.383 143.486 193.771 143.486 196.468 140.79L213.844 123.413C216.541 120.716 216.541 116.329 213.844 113.632L212.996 112.783C210.3 110.087 205.911 110.087 203.215 112.783L185.837 130.161Z" fill="#5EEFD7"/>
<path d="M178.668 161.395L177.819 160.546C174.044 156.771 174.044 150.63 177.819 146.855L195.197 129.478C198.972 125.703 205.114 125.703 208.889 129.478L209.737 130.326C213.512 134.101 213.512 140.243 209.737 144.018L192.361 161.396C188.586 165.17 182.443 165.17 178.668 161.395ZM179.775 148.809C177.079 151.506 177.079 155.893 179.775 158.59L180.625 159.439C183.321 162.135 187.707 162.135 190.404 159.439L207.781 142.061C210.478 139.365 210.478 134.978 207.781 132.281L206.933 131.433C204.237 128.736 199.849 128.736 197.152 131.433L179.775 148.809Z" fill="#F97432"/>
<path d="M208.334 128.923L213.844 123.413C216.541 120.716 216.541 116.329 213.844 113.632L212.995 112.783C210.3 110.087 205.911 110.087 203.215 112.783L185.837 130.161C183.328 132.67 183.155 136.644 185.316 139.356C185.477 139.56 187.298 141.401 187.298 141.401L185.307 143.277L183.881 141.897C183.694 141.71 183.518 141.518 183.351 141.321C180.115 137.52 180.293 131.793 183.881 128.204L201.258 110.828C205.034 107.052 211.176 107.052 214.951 110.828L215.8 111.677C219.574 115.452 219.574 121.594 215.8 125.369L210.29 130.879L208.334 128.923Z" fill="#008E7E"/>
<path d="M123.193 67.4862L98.6181 67.4869C93.2803 67.4862 88.937 63.143 88.937 57.8051V56.6043C88.937 51.2651 93.2803 46.9225 98.6194 46.9225L123.193 46.9219C128.532 46.9225 132.876 51.2658 132.877 56.6043L132.876 57.8045C132.876 63.143 128.532 67.4862 123.193 67.4862ZM98.6194 49.6871C94.8063 49.6877 91.7029 52.7899 91.7035 56.603V57.8033C91.7029 61.6164 94.8056 64.7191 98.6194 64.7191L123.193 64.7198C127.006 64.7198 130.109 61.6164 130.109 57.8039V56.6036C130.109 52.7899 127.008 49.6877 123.193 49.6877L98.6194 49.6871Z" fill="#FFC840"/>
<path d="M140.667 76.3853L116.092 76.3847C110.753 76.3841 106.411 72.0414 106.41 66.7029L106.411 65.5027C106.411 60.1642 110.753 55.8209 116.092 55.8209L140.667 55.8203C146.006 55.8209 150.349 60.1642 150.349 65.5021V66.7029C150.349 72.0414 146.005 76.3847 140.667 76.3853ZM116.093 58.5868C112.279 58.5868 109.176 61.6896 109.177 65.5027V66.7029C109.177 70.5167 112.278 73.6188 116.093 73.6188H140.667C144.48 73.6188 147.583 70.5167 147.583 66.7029V65.5027C147.583 61.6896 144.48 58.5868 140.667 58.5868H116.093Z" fill="#008E7E"/>
<path d="M106.412 64.7198H98.6194C94.8056 64.7204 91.7029 61.6176 91.7035 57.8039V56.6036C91.7029 52.7905 94.8063 49.6877 98.6194 49.6877L123.193 49.6884C126.743 49.6877 129.676 52.3756 130.066 55.8214C130.095 56.0785 130.109 58.6691 130.109 58.6691L132.844 58.5873L132.877 56.6043C132.876 56.341 132.864 56.0791 132.844 55.8214C132.444 50.8465 128.269 46.9225 123.193 46.9219L98.6194 46.9225C93.2803 46.9225 88.937 51.2651 88.937 56.6043V57.8051C88.937 63.1436 93.2803 67.4869 98.6181 67.4869L106.41 67.4862L106.412 64.7198Z" fill="#FFC840"/>
<path d="M30.0987 152.322C29.6775 152.322 29.2663 152.385 28.8718 152.509C27.8784 151.46 26.3252 150.998 24.9187 151.34C24.1477 150.354 22.9518 149.76 21.6809 149.76C21.6772 149.76 21.6729 149.76 21.6692 149.76V145.133C21.6692 142.87 19.8273 141.027 17.5631 141.027C15.2995 141.027 13.4576 142.87 13.4576 145.133V153.023C12.6823 152.051 11.4919 151.473 10.2428 151.473C9.35964 151.473 8.51737 151.751 7.80825 152.275C6.92635 152.924 6.34976 153.879 6.18503 154.966C6.02339 156.04 6.27607 157.119 6.84336 157.872L17.0274 174.534H31.6748L34.2047 170.735V156.425C34.2053 154.163 32.3635 152.322 30.0987 152.322Z" fill="#00BDA7"/>
<path d="M30.098 154.323C29.8094 154.323 29.5344 154.383 29.2842 154.488C29.2892 154.521 29.3034 154.55 29.3034 154.583V159.886C29.3034 160.244 29.013 160.535 28.6556 160.535C28.2977 160.535 28.0072 160.244 28.0072 159.886V156.3C28.0047 156.343 27.9942 156.385 27.9942 156.427V155.33C27.9942 154.167 27.0522 153.225 25.8891 153.225C25.6098 153.225 25.3448 153.282 25.1014 153.381V159.886C25.1014 160.244 24.8103 160.535 24.4536 160.535C24.0956 160.535 23.8045 160.244 23.8045 159.886V155.129C23.7983 155.196 23.7841 155.261 23.7841 155.33V153.866C23.7841 152.704 22.8427 151.76 21.6803 151.76C21.4282 151.76 21.1885 151.807 20.9644 151.889V159.886C20.9644 160.244 20.6733 160.535 20.3166 160.535C19.9586 160.535 19.6675 160.244 19.6675 159.886V153.247V148.42V145.134C19.6675 143.973 18.7255 143.029 17.5625 143.029C16.4019 143.029 15.458 143.973 15.458 145.134V157.783C15.0641 158.367 14.4479 157.786 14.4442 157.783L11.9378 154.331C11.2473 153.394 9.93001 153.196 8.99484 153.888C8.05968 154.576 7.85964 155.893 8.54955 156.829L18.1483 172.535H30.604L32.2031 170.131V168.324V160.247V156.426C32.2037 155.265 31.2617 154.323 30.098 154.323Z" fill="#008E7E"/>
<path d="M219.93 145.51L237.32 161.171L238.697 162.411L236.904 162.881L231.839 164.207L235.983 170.986L236.517 171.859L235.631 172.373L231.863 174.556L231.003 175.054L230.5 174.197L226.375 167.188L222.68 170.892L221.212 172.362L220.979 170.298L218.268 146.365L217.97 143.745L219.93 145.51Z" fill="#008E7E" stroke="#00BDA7" stroke-width="2"/>
<path d="M129.565 1C132.415 1.00026 134.727 3.31165 134.727 6.16211C134.727 9.01376 132.415 11.3259 129.565 11.3262C128.885 11.3262 128.238 11.191 127.645 10.9521C126.61 11.7806 125.574 12.6094 124.54 13.4375C124.547 13.5438 124.553 13.652 124.553 13.7617C124.553 13.9509 124.54 14.1361 124.519 14.3174C125.545 15.1388 126.571 15.96 127.598 16.7812C128.203 16.5303 128.867 16.3887 129.565 16.3887C132.416 16.3887 134.727 18.7007 134.727 21.5518C134.727 24.4029 132.415 26.7146 129.565 26.7148C126.712 26.7148 124.402 24.4026 124.402 21.5518C124.402 21.177 124.444 20.8136 124.52 20.4648C123.622 19.7462 122.723 19.0272 121.826 18.3086C121.101 18.699 120.273 18.9248 119.389 18.9248C116.538 18.9248 114.226 16.6128 114.226 13.7617C114.226 10.9103 116.538 8.59863 119.389 8.59863C120.346 8.59864 121.242 8.86048 122.01 9.31445C122.85 8.64208 123.691 7.96998 124.531 7.29785C124.448 6.93366 124.402 6.55391 124.402 6.16211C124.402 3.31188 126.712 1 129.565 1Z" fill="#008E7E" stroke="#00BDA7" stroke-width="2"/>
</svg>
