<svg width="270" height="133" viewBox="0 0 270 133" fill="none" xmlns="http://www.w3.org/2000/svg">
<path d="M64.5318 98.7959C59.7436 98.7959 55.8418 94.8942 55.8418 90.106C55.8418 85.3178 59.7436 81.416 64.5318 81.416C69.3199 81.416 73.2217 85.3178 73.2217 90.106C73.2217 94.8942 69.3199 98.7959 64.5318 98.7959ZM64.5318 84.023C61.1774 84.023 58.4488 86.7517 58.4488 90.106C58.4488 93.4603 61.1774 96.189 64.5318 96.189C67.8861 96.189 70.6147 93.4603 70.6147 90.106C70.6147 86.7517 67.8861 84.023 64.5318 84.023Z" fill="#EF9927"/>
<path d="M252.939 50.9404C251.262 50.9404 249.897 49.5761 249.897 47.8989C249.897 46.2217 251.262 44.8574 252.939 44.8574C254.616 44.8574 255.98 46.2217 255.98 47.8989C255.98 49.5761 254.616 50.9404 252.939 50.9404ZM252.939 45.7264C251.74 45.7264 250.766 46.6997 250.766 47.8989C250.766 49.0981 251.74 50.0714 252.939 50.0714C254.138 50.0714 255.111 49.0981 255.111 47.8989C255.111 46.6997 254.138 45.7264 252.939 45.7264Z" fill="#FEEA97"/>
<path d="M94.1293 130.871C92.1654 130.871 90.5664 129.272 90.5664 127.308C90.5664 125.344 92.1654 123.745 94.1293 123.745C96.0932 123.745 97.6922 125.344 97.6922 127.308C97.6922 129.272 96.0932 130.871 94.1293 130.871ZM94.1293 124.788C92.7389 124.788 91.6092 125.918 91.6092 127.308C91.6092 128.698 92.7389 129.828 94.1293 129.828C95.5197 129.828 96.6494 128.698 96.6494 127.308C96.6494 125.918 95.5197 124.788 94.1293 124.788Z" fill="#EA403F"/>
<path d="M219.587 87.2297C221.747 87.2297 223.498 85.4789 223.498 83.3192C223.498 81.1595 221.747 79.4087 219.587 79.4087C217.428 79.4087 215.677 81.1595 215.677 83.3192C215.677 85.4789 217.428 87.2297 219.587 87.2297Z" fill="#FBAD23"/>
<path d="M57.7104 42.6504C59.3902 42.6504 60.7519 41.2886 60.7519 39.6089C60.7519 37.9291 59.3902 36.5674 57.7104 36.5674C56.0307 36.5674 54.6689 37.9291 54.6689 39.6089C54.6689 41.2886 56.0307 42.6504 57.7104 42.6504Z" fill="#FBAD23"/>
<path d="M189.667 24.2449C191.587 24.2449 193.143 22.6887 193.143 20.769C193.143 18.8492 191.587 17.293 189.667 17.293C187.748 17.293 186.191 18.8492 186.191 20.769C186.191 22.6887 187.748 24.2449 189.667 24.2449Z" fill="#FED524"/>
<path d="M10.6186 111.753C12.5383 111.753 14.0946 110.197 14.0946 108.277C14.0946 106.357 12.5383 104.801 10.6186 104.801C8.69883 104.801 7.14258 106.357 7.14258 108.277C7.14258 110.197 8.69883 111.753 10.6186 111.753Z" fill="#FED524"/>
<path d="M255.233 117.558C256.673 117.558 257.84 116.391 257.84 114.951C257.84 113.511 256.673 112.344 255.233 112.344C253.793 112.344 252.626 113.511 252.626 114.951C252.626 116.391 253.793 117.558 255.233 117.558Z" fill="#FED524"/>
<path d="M79.6439 75.4284C81.8036 75.4284 83.5544 73.6776 83.5544 71.5179C83.5544 69.3582 81.8036 67.6074 79.6439 67.6074C77.4842 67.6074 75.7334 69.3582 75.7334 71.5179C75.7334 73.6776 77.4842 75.4284 79.6439 75.4284Z" fill="#E64243"/>
<path d="M166.509 2.60699C167.228 2.60699 167.812 2.0234 167.812 1.30349C167.812 0.583595 167.228 0 166.509 0C165.789 0 165.205 0.583595 165.205 1.30349C165.205 2.0234 165.789 2.60699 166.509 2.60699Z" fill="#E64243"/>
<path d="M28.6687 101.221C29.3886 101.221 29.9722 100.637 29.9722 99.9173C29.9722 99.1974 29.3886 98.6138 28.6687 98.6138C27.9488 98.6138 27.3652 99.1974 27.3652 99.9173C27.3652 100.637 27.9488 101.221 28.6687 101.221Z" fill="#E64243"/>
<path d="M91.0887 93.1475C91.8086 93.1475 92.3921 92.5639 92.3921 91.844C92.3921 91.1241 91.8086 90.5405 91.0887 90.5405C90.3688 90.5405 89.7852 91.1241 89.7852 91.844C89.7852 92.5639 90.3688 93.1475 91.0887 93.1475Z" fill="#E64243"/>
<path d="M193.586 78.7833C194.306 78.7833 194.889 78.1997 194.889 77.4798C194.889 76.7599 194.306 76.1763 193.586 76.1763C192.866 76.1763 192.282 76.7599 192.282 77.4798C192.282 78.1997 192.866 78.7833 193.586 78.7833Z" fill="#FBAD23"/>
<path d="M93.6258 10.3755C94.3457 10.3755 94.9293 9.79195 94.9293 9.07205C94.9293 8.35215 94.3457 7.76855 93.6258 7.76855C92.9059 7.76855 92.3223 8.35215 92.3223 9.07205C92.3223 9.79195 92.9059 10.3755 93.6258 10.3755Z" fill="#FFCA1E"/>
<path d="M141.733 20.282C142.933 20.282 143.906 19.3093 143.906 18.1095C143.906 16.9097 142.933 15.937 141.733 15.937C140.533 15.937 139.561 16.9097 139.561 18.1095C139.561 19.3093 140.533 20.282 141.733 20.282Z" fill="#F04D4C"/>
<path d="M264.513 96.1892C265.713 96.1892 266.686 95.2166 266.686 94.0167C266.686 92.8169 265.713 91.8442 264.513 91.8442C263.313 91.8442 262.341 92.8169 262.341 94.0167C262.341 95.2166 263.313 96.1892 264.513 96.1892Z" fill="#F04D4C"/>
<path d="M208.873 69.1023C210.073 69.1023 211.045 68.1296 211.045 66.9298C211.045 65.73 210.073 64.7573 208.873 64.7573C207.673 64.7573 206.7 65.73 206.7 66.9298C206.7 68.1296 207.673 69.1023 208.873 69.1023Z" fill="#E64243"/>
<path d="M233.508 116.775L224.636 107.494L215.589 112.413L214.347 110.128L225.14 104.244L233.621 113.117L247.707 100.03L249.48 101.942L233.508 116.775Z" fill="#FBAD23"/>
<path d="M221.272 49.281L220.116 36.4112L232.925 36.3938L228.989 22.5159L243.701 21.673L239.695 11.4275L242.936 10.1675L248.68 24.8622L233.516 25.7399L237.522 39.8698L223.922 39.8872L224.731 48.9682L221.272 49.281Z" fill="#F04D4C"/>
<path d="M79.9568 45.2228L77.4714 44.4146L81.8338 30.9452L69.9199 25.6964L74.9687 13.0786L60.752 9.57653L61.3689 7.03906L78.4969 11.2624L73.2742 24.3234L85.0404 29.5113L79.9568 45.2228Z" fill="#FBAD23"/>
<path d="M19.0136 82.5545L11.8184 67.3992L2.86769 80.4603L0 78.4963L12.3571 60.4473L19.9435 76.402L27.9209 67.7295L35.1944 79.8085L32.2137 81.5986L27.3386 73.4996L19.0136 82.5545Z" fill="#FEE569"/>
<path d="M38.6701 46.5002C31.0403 41.4426 33.5083 31.0321 33.6126 30.5889L36.1413 31.2145C36.1153 31.3014 34.021 40.2956 40.104 44.3277L38.6614 46.5002H38.6701Z" fill="#FBAD23"/>
<path d="M256.354 75.7417L254.104 74.4295C258.718 66.5216 269.259 68.3986 269.702 68.4769L269.224 71.0404C269.128 71.023 260.039 69.4327 256.354 75.7417Z" fill="#FBAD23"/>
<path d="M72.4829 115.289L70.041 114.386C70.0758 114.299 73.5344 105.357 84.1188 106.495L83.8407 109.085C75.2463 108.164 72.5177 115.22 72.4916 115.289H72.4829Z" fill="#FBAD23"/>
<path d="M192.683 132.574L190.267 131.601C191.362 128.881 191.466 126.526 190.563 124.596C189.207 121.694 186.061 120.634 186.026 120.625L186.835 118.148C187.008 118.201 191.101 119.574 192.926 123.501C194.143 126.117 194.065 129.167 192.683 132.582V132.574Z" fill="#CC3432"/>
<path d="M102.255 20.1345L101.004 17.8491C103.567 16.4413 105.132 14.6859 105.662 12.6351C106.453 9.55017 104.68 6.69117 104.662 6.6651L106.861 5.25732C106.957 5.41374 109.259 9.06353 108.199 13.2521C107.487 16.0416 105.497 18.3618 102.264 20.1345H102.255Z" fill="#CC3432"/>
<path d="M211.374 102.237C200.26 100.134 197.6 89.9585 197.496 89.524L200.025 88.8983L198.756 89.2112L200.025 88.8896C200.12 89.2546 202.415 97.8925 211.861 99.6739L211.374 102.237Z" fill="#F04D4C"/>
<path d="M193.986 35.377C192.526 36.3676 209.089 34.0995 216.441 14.382C217.049 12.757 209.498 7.39527 207.655 9.59383C205.822 11.7837 211.114 23.7759 193.986 35.377Z" fill="#FBAD23"/>
<path d="M97.7012 57.4058C97.7012 57.4058 97.762 108.816 98.9351 110.719C100.108 112.622 142.263 131.948 143.793 131.488L143.532 76.4889L97.7012 57.4058Z" fill="#E54142"/>
<path d="M113.682 118.453C113.682 118.453 117.392 124.041 125.596 124.041V72.1705L113.682 66.7393V118.462V118.453Z" fill="#FBAD22"/>
<g style="mix-blend-mode:multiply" opacity="0.2">
<path d="M125.604 80.8251V72.1612L113.69 66.73V77.4273C117.627 78.7134 121.59 79.8779 125.604 80.8251Z" fill="#FBAD23"/>
</g>
<path d="M143.106 76.7063L143.793 131.497C143.793 131.497 184.714 111.649 185.105 109.554C185.496 107.451 186.574 55.3638 186.574 55.3638L143.098 76.715L143.106 76.7063Z" fill="#C13939"/>
<path d="M162.363 122.285C162.363 122.285 169.558 121.451 173.147 116.732L174.39 65.314L162.181 69.0333L162.363 122.285Z" fill="#EF9926"/>
<g style="mix-blend-mode:multiply" opacity="0.17">
<path d="M174.034 80.1304L174.39 65.314L162.181 69.0333L162.233 84.3971C166.204 83.0763 170.149 81.6772 174.034 80.139V80.1304Z" fill="#EF9927"/>
</g>
<path d="M93.6257 50.1758C93.6257 50.1758 93.2781 61.829 93.73 63.3932C94.1819 64.9574 144.679 85.7786 145.783 86.2044C145.783 86.2044 145.461 72.0745 145.444 71.5183C145.418 70.8405 93.6257 50.1758 93.6257 50.1758Z" fill="#EF4B4B"/>
<path d="M145.444 71.5181L145.783 86.2042C145.783 86.2042 188.972 68.6591 189.607 66.5475C189.92 65.496 190.893 52.2438 189.277 52.2872L145.444 71.5181Z" fill="#D33D3C"/>
<path d="M145.443 71.5181L189.275 52.2872C189.275 52.2872 143.262 34.551 141.064 34.6031C138.9 34.6553 93.625 50.1843 93.625 50.1843L145.443 71.5268V71.5181Z" fill="#E64243"/>
<path d="M115.159 42.8675L165.856 62.559L166.812 77.4362C166.812 77.4362 173.512 78.1488 176.91 73.0478L176.05 58.0837L124.935 39.6001C124.935 39.6001 117.784 39.6522 115.159 42.8675Z" fill="#FBAD22"/>
<path d="M157.193 40.1389C157.193 40.1389 164.379 40.0433 167.925 44.1536L123.693 62.5677L123.493 76.9235C123.493 76.9235 113.682 75.8459 110.797 71.527L111.171 57.4145L157.184 40.1476L157.193 40.1389Z" fill="#FFCA1C"/>
<path d="M175.041 23.3411C156.679 3.75391 139.995 46.074 144.018 50.1757C149.493 55.7634 194.472 44.058 175.041 23.3411ZM145.243 49.1242C144.522 48.1509 159.512 11.74 171.131 27.0083C184.678 44.8227 146.373 50.6537 145.243 49.1242Z" fill="#FFE41D"/>
<g style="mix-blend-mode:multiply" opacity="0.18">
<path d="M177.014 25.7222C176.971 26.1132 176.927 26.5043 176.875 26.8953C176.415 30.2149 175.198 32.9175 173.877 35.7243C173.625 37.0191 173.043 38.2096 172.226 39.3046C172.026 39.713 171.765 39.9998 171.47 40.2083C165.509 46.6911 150.857 49.411 146.478 49.3502C145.557 49.4892 144.618 49.5587 143.662 49.5935C143.749 49.8281 143.871 50.028 144.01 50.1757C149.276 55.5461 191.005 44.9444 177.006 25.7222H177.014Z" fill="#FDBA26"/>
</g>
<path d="M144.148 48.7592C146.946 47.5252 147.085 23.341 134.146 29.3719C120.459 35.759 140.342 50.4363 144.148 48.7592ZM135.345 31.9528C144.096 26.7127 144.296 47.6556 143.748 47.9945C142.888 48.5246 125.134 38.0618 135.345 31.9528Z" fill="#FFE420"/>
<g style="mix-blend-mode:multiply" opacity="0.18">
<path d="M132.695 30.1542C132.635 30.3541 132.582 30.5539 132.53 30.7625C132.104 32.4918 132.165 34.0647 132.261 35.7158C132.131 36.4023 132.183 37.1062 132.365 37.8101C132.383 38.0534 132.452 38.2446 132.556 38.401C134.216 42.7807 140.907 47.0214 143.08 47.8557C143.506 48.1077 143.958 48.3249 144.418 48.5335C144.323 48.6291 144.236 48.7073 144.131 48.7507C140.473 50.3584 121.972 36.8715 132.678 30.1455L132.695 30.1542Z" fill="#FDBA26"/>
</g>
<path d="M144.296 50.0976C148.32 45.9959 131.635 3.67579 113.273 23.263C93.8423 43.9799 138.822 55.6852 144.296 50.0976ZM117.184 26.9214C128.793 11.6532 143.792 48.0641 143.071 49.0374C141.941 50.5668 103.636 44.7359 117.184 26.9214Z" fill="#FFE420"/>
<g style="mix-blend-mode:multiply" opacity="0.18">
<path d="M111.301 25.644C111.345 26.0351 111.388 26.4261 111.44 26.8172C111.901 30.1368 113.117 32.8393 114.438 35.6462C114.69 36.941 115.272 38.1315 116.089 39.2265C116.289 39.6349 116.55 39.9217 116.845 40.1302C122.807 46.6129 137.458 49.3329 141.838 49.2721C142.759 49.4111 143.697 49.4806 144.653 49.5154C144.566 49.75 144.445 49.9499 144.306 50.0976C139.039 55.468 97.3102 44.8662 111.31 25.644H111.301Z" fill="#FDBA26"/>
</g>
<path d="M155.663 38.0706C147.807 31.5966 143.575 48.3248 145.287 49.6717C147.616 51.5053 163.971 44.927 155.663 38.0706ZM145.704 49.2198C145.383 48.8896 149.258 34.4643 154.368 39.6435C160.33 45.6917 146.2 49.7412 145.704 49.2198Z" fill="#FFE420"/>
<g style="mix-blend-mode:multiply" opacity="0.18">
<path d="M156.515 38.8705C156.515 39.0182 156.515 39.166 156.515 39.3224C156.497 40.5911 156.176 41.6687 155.819 42.7897C155.785 43.285 155.628 43.763 155.368 44.2148C155.315 44.3799 155.228 44.5016 155.124 44.5885C153.195 47.3172 147.816 49.0551 146.165 49.2376C145.826 49.3332 145.478 49.4027 145.122 49.4636C145.166 49.5505 145.218 49.62 145.278 49.6634C147.52 51.4275 162.711 45.4141 156.506 38.8618L156.515 38.8705Z" fill="#FDBA26"/>
</g>
<path opacity="0.48" d="M118.748 58.6484C122.016 57.0668 125.396 55.8067 128.889 54.8335C130.506 54.3903 129.819 51.8702 128.194 52.3221C124.475 53.3475 120.895 54.7205 117.427 56.3977C115.915 57.1276 117.236 59.3783 118.739 58.6484H118.748Z" fill="#FFE420"/>
<path opacity="0.48" d="M113.804 61.7947C113.665 63.6456 113.535 65.4966 113.396 67.3475C113.274 69.0247 115.881 69.016 116.003 67.3475C116.142 65.4966 116.272 63.6456 116.411 61.7947C116.533 60.1175 113.926 60.1262 113.804 61.7947Z" fill="#FFE420"/>
<path opacity="0.45" d="M157.645 55.8676C161.555 57.1798 165.466 58.4833 169.367 59.7955C170.958 60.3256 171.644 57.8142 170.063 57.2841C166.152 55.9719 162.242 54.6684 158.34 53.3562C156.75 52.8262 156.063 55.3375 157.645 55.8676Z" fill="#FFCA1E"/>
<path opacity="0.45" d="M171.757 61.9073C171.801 63.7582 171.766 65.6005 171.662 67.4515C171.566 69.1287 174.173 69.12 174.269 67.4515C174.373 65.6092 174.408 63.7582 174.364 61.9073C174.33 60.2301 171.723 60.2301 171.757 61.9073Z" fill="#FFCA1E"/>
<path opacity="0.45" d="M116.055 104.393C116.072 106.583 116.098 108.772 116.116 110.962C116.133 112.639 118.74 112.639 118.723 110.962C118.705 108.772 118.679 106.583 118.662 104.393C118.644 102.715 116.037 102.715 116.055 104.393Z" fill="#FFCA1E"/>
<path opacity="0.45" d="M116.071 89.1675C116.106 92.7478 116.141 96.3368 116.167 99.917C116.184 101.594 118.791 101.594 118.774 99.917C118.739 96.3368 118.704 92.7478 118.678 89.1675C118.661 87.4904 116.054 87.4904 116.071 89.1675Z" fill="#FFCA1E"/>
<path opacity="0.51" d="M169.506 84.4488C169.384 89.6106 169.332 94.7812 169.367 99.9517C169.376 101.629 171.983 101.629 171.974 99.9517C171.939 94.7812 171.991 89.6193 172.113 84.4488C172.156 82.7716 169.55 82.7716 169.506 84.4488Z" fill="#FBAD23"/>
<path opacity="0.51" d="M169.437 104.879C169.254 107.156 169.306 109.424 169.593 111.692C169.802 113.335 172.409 113.352 172.2 111.692C171.913 109.424 171.861 107.165 172.044 104.879C172.183 103.211 169.576 103.22 169.437 104.879Z" fill="#FBAD23"/>
<path d="M102.924 51.6616C106.322 50.6362 109.694 49.5065 113.022 48.2812C114.586 47.7077 113.908 45.1876 112.327 45.7698C108.99 46.9951 105.627 48.1161 102.229 49.1502C100.63 49.6368 101.308 52.1482 102.924 51.6616Z" fill="#F04D4C"/>
<path d="M99.9864 71.9005C99.7866 78.0964 99.7779 84.2837 99.943 90.4796C99.9864 92.1568 102.593 92.1568 102.55 90.4796C102.385 84.2837 102.394 78.0964 102.593 71.9005C102.646 70.2233 100.039 70.2233 99.9864 71.9005Z" fill="#F04D4C"/>
<path d="M100.116 94.816C100.046 96.9189 100.038 99.0132 100.081 101.116C100.116 102.793 102.723 102.793 102.688 101.116C102.645 99.0132 102.662 96.9189 102.723 94.816C102.775 93.1388 100.168 93.1388 100.116 94.816Z" fill="#F04D4C"/>
</svg>
